<svg width="25" height="24" viewBox="0 0 25 24" fill="none" xmlns="http://www.w3.org/2000/svg">
<path fill-rule="evenodd" clip-rule="evenodd" d="M5.17248 12V8.62081C6.885 9.50509 9.50228 10 12.4139 10C15.3254 10 17.9427 9.50509 19.6552 8.62081V12C19.6552 12.837 16.447 14 12.4139 14C8.3807 14 5.17248 12.837 5.17248 12ZM3.10352 12V6C3.10352 3.52331 7.30575 2 12.4139 2C17.522 2 21.7242 3.52331 21.7242 6L21.7242 12C21.7242 12.0007 21.7242 12.0014 21.7242 12.002V18C21.7242 20.4767 17.522 22 12.4139 22C7.30575 22 3.10352 20.4767 3.10352 18V12ZM19.6552 14.6208V18C19.6552 18.837 16.447 20 12.4139 20C8.3807 20 5.17248 18.837 5.17248 18V14.6208C6.885 15.5051 9.50228 16 12.4139 16C15.3254 16 17.9427 15.5051 19.6552 14.6208ZM12.4139 8C16.4452 8 19.6524 6.83806 19.6552 6.00112L19.6552 6C19.6552 5.16298 16.447 4 12.4139 4C8.3807 4 5.17248 5.16298 5.17248 6C5.17248 6.83702 8.3807 8 12.4139 8Z" fill="black"/>
</svg>
