<svg width="21" height="20" viewBox="0 0 21 20" fill="none" xmlns="http://www.w3.org/2000/svg">
<path fill-rule="evenodd" clip-rule="evenodd" d="M20.7586 8.5C20.7586 10.9985 18.5663 13 15.8905 13H11.4483V14.1707C12.3301 14.472 13.029 15.1476 13.3407 16H18.6897V18H13.3407C12.9146 19.1652 11.7651 20 10.4138 20C9.06254 20 7.91298 19.1652 7.48694 18H2.13794V16H7.48694C7.79861 15.1476 8.49751 14.472 9.37931 14.1707V13H5.48479C2.50652 13 0.0689697 10.7746 0.0689697 8C0.0689697 5.6561 1.81924 3.67388 4.20427 3.14064C5.42627 1.22079 7.7971 0 10.4138 0C13.4972 0 16.1999 1.69385 17.1308 4.14742C19.2247 4.65541 20.7586 6.41553 20.7586 8.5ZM11.4483 17C11.4483 17.5523 10.9851 18 10.4138 18C9.84247 18 9.37931 17.5523 9.37931 17C9.37931 16.4477 9.84247 16 10.4138 16C10.9851 16 11.4483 16.4477 11.4483 17ZM16.2139 6.01645C17.6284 6.16144 18.6897 7.23821 18.6897 8.5C18.6897 9.86753 17.4492 11 15.8905 11H5.48479C3.62357 11 2.13794 9.64367 2.13794 8C2.13794 6.51381 3.35948 5.24132 5.00634 5.03035L5.55185 4.96046L5.79679 4.48412C6.55616 3.00734 8.35884 2 10.4138 2C12.8411 2 14.8739 3.4006 15.315 5.24705L15.4809 5.94132L16.2139 6.01645Z" fill="black"/>
</svg>
