<svg width="25" height="24" viewBox="0 0 25 24" fill="none" xmlns="http://www.w3.org/2000/svg">
<path fill-rule="evenodd" clip-rule="evenodd" d="M22.7585 4H21.724V14C21.724 15.1046 20.7977 16 19.6551 16H13.4482V17.4338L18.1183 20.1425L17.0539 21.8575L13.4482 19.7662V22H11.3792V19.7662L7.7735 21.8575L6.70902 20.1425L11.3792 17.4338V16H5.1723C4.02964 16 3.10333 15.1046 3.10333 14V4H2.06885V2H22.7585V4ZM5.1723 4V14H19.6551V4H5.1723ZM8.27574 12H10.3447V8H8.27574V12ZM13.4482 12H11.3792V6H13.4482V12ZM14.4826 12H16.5516V9H14.4826V12Z" fill="black"/>
</svg>
