<svg width="23" height="18" viewBox="0 0 23 18" fill="none" xmlns="http://www.w3.org/2000/svg">
<path fill-rule="evenodd" clip-rule="evenodd" d="M20.7241 2C21.8668 2 22.7931 2.89543 22.7931 4V16C22.7931 17.1046 21.8668 18 20.7241 18H2.10345C0.960792 18 0.0344849 17.1046 0.0344849 16V2C0.0344849 0.89543 0.960792 0 2.10345 0H8.31035C9.46897 0 10.2065 0.475451 10.9472 1.37885C10.9677 1.40385 11.0177 1.46607 11.073 1.53498L11.073 1.53502C11.1511 1.63227 11.2398 1.74282 11.2715 1.78082C11.3036 1.81925 11.3306 1.85104 11.353 1.87732C11.444 1.98428 11.4572 1.99978 11.4156 2H20.7241ZM20.7241 6V4L11.4083 3.99999C10.6653 3.99614 10.1814 3.65991 9.66121 3.03654C9.61407 2.98005 9.49953 2.83733 9.41638 2.73371L9.41609 2.73335C9.37272 2.67932 9.33794 2.63598 9.32579 2.62116C8.9383 2.14857 8.70784 2 8.31035 2H2.10345V6H20.7241ZM20.7241 8H2.10345V16H20.7241V8Z" fill="black"/>
</svg>
